# xmcd CD database file
#
# Track frame offsets:
#	150
#	18570
#	37167
#
# Disc length: 740 seconds
#
# Revision: 3
# Processed by: cddbd v1.5PL3 Copyright (c) Steve Scherf et al.
# Submitted via: CDex 1.50beta9
#
DISCID=2102e203
DTITLE=篠原ともえ - クルクル ミラクル
DYEAR=1996
DGENRE=JPop
TTITLE0=クルクル ミラクル
TTITLE1=篠原ともえのクレクレタコラ
TTITLE2=クルクル ミラクル (karaoke)
EXTD=YEAR: 1996
EXTT0=
EXTT1=
EXTT2=
PLAYORDER=
